<svg xmlns="http://www.w3.org/2000/svg" width="300px" height="50px" viewBox="185 175 270 100" style="overflow: visible;" data-bbox="91.27424763824142 188.05070284501156 372.7257523617585 74.59762154324963"><path id="_UYnpcajkd_7-ouJFO89yY" fill="#2fcc76" transform="matrix(0.7240296602249146, 0, 0, 0.7240296602249146, 173.6641082763672, 251.77659606933594)" text="Colosso" text-anchor="start" font-size="100" letter-spacing="0" side="left" offset="0" dx="0" dy="0" space="preserve" href="" font-family="Montserrat" font-scale="contain" x="0" y="0" font-weight="700" data-fl-textpath="" data-uid="o-ec9cf8e694464ee4be3d0f415bf76b17" d="M 41.8 1.2Q 31.1 1.2  22.45-3.45Q 13.8-8.1  8.85-16.35Q 3.9-24.6  3.9-35L 3.9-35Q 3.9-45.4  8.85-53.65Q 13.8-61.9  22.45-66.55Q 31.1-71.2  41.9-71.2L 41.9-71.2Q 51-71.2  58.35-68Q 65.7-64.8  70.7-58.8L 70.7-58.8L 60.3-49.2Q 53.2-57.4  42.7-57.4L 42.7-57.4Q 36.2-57.4  31.1-54.55Q 26-51.7  23.15-46.6Q 20.3-41.5  20.3-35L 20.3-35Q 20.3-28.5  23.15-23.4Q 26-18.3  31.1-15.45Q 36.2-12.6  42.7-12.6L 42.7-12.6Q 53.2-12.6  60.3-20.9L 60.3-20.9L 70.7-11.3Q 65.7-5.2  58.3-2Q 50.9 1.2  41.8 1.2L 41.8 1.2ZM 104.2 0.8Q 95.7 0.8  88.95-2.75Q 82.2-6.3  78.4-12.6Q 74.6-18.9  74.6-26.9L 74.6-26.9Q 74.6-34.9  78.4-41.2Q 82.2-47.5  88.95-51.05Q 95.7-54.6  104.2-54.6L 104.2-54.6Q 112.7-54.6  119.4-51.05Q 126.1-47.5  129.9-41.2Q 133.7-34.9  133.7-26.9L 133.7-26.9Q 133.7-18.9  129.9-12.6Q 126.1-6.3  119.4-2.75Q 112.7 0.8  104.2 0.8L 104.2 0.8ZM 104.2-12Q 110.2-12  114.05-16.05Q 117.9-20.1  117.9-26.9L 117.9-26.9Q 117.9-33.7  114.05-37.75Q 110.2-41.8  104.2-41.8L 104.2-41.8Q 98.2-41.8  94.3-37.75Q 90.4-33.7  90.4-26.9L 90.4-26.9Q 90.4-20.1  94.3-16.05Q 98.2-12  104.2-12L 104.2-12ZM 144.1 0L 144.1-74.2L 159.7-74.2L 159.7 0L 144.1 0ZM 199.8 0.8Q 191.3 0.8  184.55-2.75Q 177.8-6.3  174-12.6Q 170.2-18.9  170.2-26.9L 170.2-26.9Q 170.2-34.9  174-41.2Q 177.8-47.5  184.55-51.05Q 191.3-54.6  199.8-54.6L 199.8-54.6Q 208.3-54.6  215-51.05Q 221.7-47.5  225.5-41.2Q 229.3-34.9  229.3-26.9L 229.3-26.9Q 229.3-18.9  225.5-12.6Q 221.7-6.3  215-2.75Q 208.3 0.8  199.8 0.8L 199.8 0.8ZM 199.8-12Q 205.8-12  209.65-16.05Q 213.5-20.1  213.5-26.9L 213.5-26.9Q 213.5-33.7  209.65-37.75Q 205.8-41.8  199.8-41.8L 199.8-41.8Q 193.8-41.8  189.9-37.75Q 186-33.7  186-26.9L 186-26.9Q 186-20.1  189.9-16.05Q 193.8-12  199.8-12L 199.8-12ZM 257.8 0.8Q 251.1 0.8  244.7-0.85Q 238.3-2.5  234.5-5L 234.5-5L 239.7-16.2Q 243.3-13.9  248.4-12.45Q 253.5-11  258.4-11L 258.4-11Q 268.3-11  268.3-15.9L 268.3-15.9Q 268.3-18.2  265.6-19.2Q 262.9-20.2  257.3-20.9L 257.3-20.9Q 250.7-21.9  246.4-23.2Q 242.1-24.5  238.95-27.8Q 235.8-31.1  235.8-37.2L 235.8-37.2Q 235.8-42.3  238.75-46.25Q 241.7-50.2  247.35-52.4Q 253-54.6  260.7-54.6L 260.7-54.6Q 266.4-54.6  272.05-53.35Q 277.7-52.1  281.4-49.9L 281.4-49.9L 276.2-38.8Q 269.1-42.8  260.7-42.8L 260.7-42.8Q 255.7-42.8  253.2-41.4Q 250.7-40  250.7-37.8L 250.7-37.8Q 250.7-35.3  253.4-34.3Q 256.1-33.3  262-32.4L 262-32.4Q 268.6-31.3  272.8-30.05Q 277-28.8  280.1-25.5Q 283.2-22.2  283.2-16.3L 283.2-16.3Q 283.2-11.3  280.2-7.4Q 277.2-3.5  271.45-1.35Q 265.7 0.8  257.8 0.8L 257.8 0.8ZM 310.9 0.8Q 304.2 0.8  297.8-0.85Q 291.4-2.5  287.6-5L 287.6-5L 292.8-16.2Q 296.4-13.9  301.5-12.45Q 306.6-11  311.5-11L 311.5-11Q 321.4-11  321.4-15.9L 321.4-15.9Q 321.4-18.2  318.7-19.2Q 316-20.2  310.4-20.9L 310.4-20.9Q 303.8-21.9  299.5-23.2Q 295.2-24.5  292.05-27.8Q 288.9-31.1  288.9-37.2L 288.9-37.2Q 288.9-42.3  291.85-46.25Q 294.8-50.2  300.45-52.4Q 306.1-54.6  313.8-54.6L 313.8-54.6Q 319.5-54.6  325.15-53.35Q 330.8-52.1  334.5-49.9L 334.5-49.9L 329.3-38.8Q 322.2-42.8  313.8-42.8L 313.8-42.8Q 308.8-42.8  306.3-41.4Q 303.8-40  303.8-37.8L 303.8-37.8Q 303.8-35.3  306.5-34.3Q 309.2-33.3  315.1-32.4L 315.1-32.4Q 321.7-31.3  325.9-30.05Q 330.1-28.8  333.2-25.5Q 336.3-22.2  336.3-16.3L 336.3-16.3Q 336.3-11.3  333.3-7.4Q 330.3-3.5  324.55-1.35Q 318.8 0.8  310.9 0.8L 310.9 0.8ZM 371.5 0.8Q 363 0.8  356.25-2.75Q 349.5-6.3  345.7-12.6Q 341.9-18.9  341.9-26.9L 341.9-26.9Q 341.9-34.9  345.7-41.2Q 349.5-47.5  356.25-51.05Q 363-54.6  371.5-54.6L 371.5-54.6Q 380-54.6  386.7-51.05Q 393.4-47.5  397.2-41.2Q 401-34.9  401-26.9L 401-26.9Q 401-18.9  397.2-12.6Q 393.4-6.3  386.7-2.75Q 380 0.8  371.5 0.8L 371.5 0.8ZM 371.5-12Q 377.5-12  381.35-16.05Q 385.2-20.1  385.2-26.9L 385.2-26.9Q 385.2-33.7  381.35-37.75Q 377.5-41.8  371.5-41.8L 371.5-41.8Q 365.5-41.8  361.6-37.75Q 357.7-33.7  357.7-26.9L 357.7-26.9Q 357.7-20.1  361.6-16.05Q 365.5-12  371.5-12L 371.5-12Z"></path><g transform="matrix(0.15700101852416992, 0, 0, 0.15700101852416992, 90.72532653808594, 185.15733337402344)" fill="#2fcc76" stroke="#2fcc76" stroke-width="1" data-uid="o-db7254c8af4842458ade730f0eb06d12"><path d="m71.43 211.54s-.07 0-.11 0c-.71-.03-1.38-.37-1.83-.92l-38.17-47c-.8-.99-.74-2.41.15-3.32 36.34-37.22 77.41-67.16 122.06-88.99 37.22-18.2 76.16-30.27 115.75-35.87 39.6-5.6 78.58-4.55 115.85 3.13 21.01 4.32 41.59 10.81 61.17 19.28 21.62 9.37 42.21 21.25 61.19 35.3 1.07.79 1.33 2.28.6 3.39l-38.18 57.81c-.38.57-.98.97-1.66 1.08-.68.12-1.38-.05-1.93-.46-7.95-5.96-16.33-11.51-24.9-16.49-9.27-5.38-18.93-10.19-28.72-14.31-15.3-6.44-31.37-11.42-47.75-14.79-30.54-6.29-62.5-7.15-94.98-2.56-32.51 4.6-64.5 14.51-95.09 29.47-37.23 18.2-71.44 43.26-101.66 74.49-.47.49-1.12.76-1.8.76zm-34.82-49.35 34.99 43.09c30.15-30.71 64.15-55.43 101.09-73.49 31.05-15.19 63.55-25.26 96.58-29.93 33.06-4.67 65.59-3.79 96.69 2.61 16.7 3.44 33.08 8.51 48.68 15.08 9.98 4.2 19.84 9.11 29.29 14.59 7.97 4.63 15.79 9.75 23.26 15.23l35.41-53.62c-18.14-13.21-37.74-24.42-58.29-33.33-19.26-8.34-39.51-14.72-60.19-18.97-36.71-7.57-75.12-8.6-114.15-3.08-39.06 5.53-77.5 17.44-114.25 35.41-43.5 21.27-83.56 50.33-119.12 86.4z" transform="matrix(1, 0, 0, 1, 0, 0)" fill="#2fcc76" stroke="#2fcc76" stroke-width="1" data-uid="o-9e57816351f4435486683bf68fcaaf75"></path><path d="m33.26 164.53c-.38 0-.75-.08-1.11-.26l-27.26-13.46c-.72-.35-1.22-1.03-1.36-1.82-.13-.79.12-1.6.68-2.17 36.36-37.21 77.42-67.15 122.06-88.98 37.25-18.21 76.19-30.28 115.76-35.88 39.59-5.59 78.57-4.54 115.85 3.13 31.26 6.44 61.08 17.49 88.64 32.85 1.16.65 1.61 2.09 1.02 3.29s-2.01 1.72-3.23 1.19c-19.26-8.34-39.51-14.72-60.19-18.97-36.71-7.57-75.12-8.6-114.15-3.08-39.06 5.53-77.5 17.44-114.25 35.41-44.13 21.58-84.73 51.18-120.67 87.99-.48.49-1.13.75-1.79.75zm-23.05-16.67 22.54 11.12c36.03-36.62 76.66-66.12 120.78-87.69 37.22-18.2 76.16-30.27 115.75-35.87 39.6-5.6 78.58-4.55 115.85 3.13 4.34.89 8.67 1.88 12.97 2.96-13.4-4.77-27.17-8.61-41.23-11.51-36.73-7.56-75.13-8.59-114.15-3.08-39.04 5.53-77.49 17.44-114.26 35.42-43.13 21.09-82.9 49.86-118.26 85.52z" transform="matrix(1, 0, 0, 1, 0, 0)" fill="#2fcc76" stroke="#2fcc76" stroke-width="1" data-uid="o-d4b938e97ed544d797c3d7c7176b925b"></path><path d="m147.81 305.59s-.06 0-.09 0c-.72-.02-1.4-.36-1.85-.92l-38.2-47.03c-.79-.98-.74-2.39.13-3.3 24.88-26.06 53.16-46.93 84.06-62.03 24.89-12.17 50.93-20.24 77.41-23.99 26.51-3.75 52.59-3.04 77.53 2.11 12.39 2.55 24.58 6.23 36.22 10.93 3.49 1.41 6.95 2.91 10.26 4.48 2.27 1.05 4.62 2.21 6.96 3.43 10.76 5.52 21.17 12.1 30.91 19.55 1.04.8 1.29 2.27.57 3.36l-38.19 57.85c-.39.58-1 .98-1.69 1.09s-1.4-.07-1.95-.5c-7.78-6.14-16.19-11.52-24.99-15.99-5.02-2.55-10.21-4.83-15.41-6.78-7.4-2.78-15.09-5-22.87-6.6-18.23-3.75-37.29-4.26-56.65-1.52-19.4 2.75-38.5 8.67-56.75 17.6-23.47 11.47-44.87 27.45-63.59 47.5-.47.51-1.14.79-1.83.79zm-34.86-49.39 35.01 43.1c18.67-19.53 39.88-35.16 63.08-46.5 18.72-9.16 38.32-15.23 58.24-18.05 19.94-2.82 39.57-2.29 58.36 1.58 8.03 1.65 15.98 3.94 23.62 6.82 5.37 2.01 10.73 4.36 15.92 7 8.29 4.21 16.24 9.21 23.67 14.86l35.41-53.64c-8.97-6.69-18.48-12.63-28.31-17.67-2.28-1.19-4.56-2.31-6.78-3.34-3.24-1.53-6.61-3-10.01-4.37-11.37-4.6-23.27-8.19-35.36-10.67-24.37-5.03-49.88-5.72-75.82-2.05-25.95 3.68-51.49 11.59-75.91 23.53-29.74 14.54-57.02 34.52-81.11 59.41z" transform="matrix(1, 0, 0, 1, 0, 0)" fill="#2fcc76" stroke="#2fcc76" stroke-width="1" data-uid="o-e2334e9fd2d94f77bd55d4a995182642"></path><path d="m224.44 399.95c-.75 0-1.47-.34-1.94-.92l-38.38-47.26c-.77-.95-.74-2.32.08-3.24 13.36-14.98 28.84-26.82 46.01-35.2 12.56-6.16 25.71-10.24 39.08-12.12 13.39-1.9 26.58-1.54 39.19 1.07 3.67.76 7.36 1.72 10.96 2.87 3.66 1.17 7.25 2.54 10.67 4.07 2.3 1 4.69 2.17 7.08 3.45.04.02.08.05.13.07 6.19 3.34 12.09 7.33 17.51 11.88.97.82 1.18 2.23.48 3.29l-38.39 58.12c-.41.63-1.09 1.03-1.83 1.11-.75.08-1.49-.19-2.02-.72-6.79-6.8-15.35-11.42-24.76-13.35l-.71-.14c-.49-.1-.95-.18-1.42-.25-5.25-.85-10.68-.89-16.18-.1-6.31.89-12.51 2.81-18.42 5.71-9.55 4.67-18.25 11.82-25.15 20.69-.47.6-1.19.96-1.95.96h-.03zm-35.09-49.67 35.08 43.21c7.03-8.34 15.59-15.11 24.93-19.67 6.38-3.13 13.08-5.21 19.91-6.17 6-.85 11.94-.82 17.65.11.53.08 1.08.17 1.63.29l.71.14c9.4 1.93 18.01 6.28 25.11 12.63l35.5-53.75c-4.72-3.78-9.77-7.12-15.06-9.96-.04-.02-.08-.05-.13-.07-2.26-1.21-4.43-2.27-6.62-3.22-3.28-1.47-6.69-2.77-10.17-3.88-3.43-1.09-6.95-2.01-10.45-2.74-12.05-2.5-24.65-2.84-37.47-1.02-12.85 1.81-25.49 5.74-37.58 11.67-15.98 7.8-30.45 18.71-43.05 32.46z" transform="matrix(1, 0, 0, 1, 0, 0)" fill="#2fcc76" stroke="#2fcc76" stroke-width="1" data-uid="o-1fa1071dc8264b9c9a7bf4bd31ef9b95"></path><path d="m265 493.56c-5.28 0-10.36-1.21-14.91-3.57-4.88-2.53-9.08-6.37-12.16-11.1-3.86-5.93-5.91-13.12-5.91-20.81 0-21.94 16.71-42.15 37.25-45.05.76-.11 1.56-.19 2.51-.26 5.68-.41 11.07.55 16.03 2.83l1.35.66c11.32 5.89 18.06 17.81 18.06 31.9 0 21.94-16.71 42.15-37.25 45.06-1.67.24-3.33.35-4.97.35zm9.3-75.89c-.71 0-1.43.03-2.16.08-.83.06-1.52.13-2.17.23-18.18 2.57-32.96 20.55-32.96 40.1 0 6.72 1.76 12.97 5.1 18.08 2.61 4.01 6.17 7.25 10.28 9.39 5.04 2.62 10.87 3.55 16.88 2.71 18.17-2.57 32.95-20.57 32.95-40.11 0-12.19-5.73-22.45-15.33-27.45l-1.22-.6c-3.51-1.61-7.34-2.43-11.37-2.43z" transform="matrix(1, 0, 0, 1, 0, 0)" fill="#2fcc76" stroke="#2fcc76" stroke-width="1" data-uid="o-d77979f4ed9a4d13a341517154df6003"></path><path d="m467.82 155.46c-.37 0-.75-.08-1.11-.26l-27.25-13.46c-.14-.07-.27-.15-.39-.24-8.53-6.39-17.49-12.27-26.64-17.47-1.15-.65-1.59-2.09-1.01-3.28.59-1.19 1.99-1.71 3.21-1.2 9.99 4.2 19.84 9.11 29.29 14.59 8.73 5.07 17.28 10.73 25.39 16.81 1.03.77 1.31 2.21.63 3.31-.47.76-1.29 1.19-2.13 1.19z" transform="matrix(1, 0, 0, 1, 0, 0)" fill="#2fcc76" stroke="#2fcc76" stroke-width="1" data-uid="o-341bfb2c96c143d79a5ddb2af48ce39a"></path><path d="m71.43 211.54c-.37 0-.75-.08-1.11-.26l-27.25-13.45c-.32-.16-.61-.39-.83-.67l-38.18-47.01c-.74-.91-.75-2.22-.01-3.14.73-.92 2.01-1.2 3.06-.68l27.26 13.46c.32.16.61.39.83.67l38.17 47.01c.74.91.75 2.22.01 3.13-.49.61-1.21.94-1.95.94zm-25.65-17.95 16.5 8.15-30.61-37.7-16.51-8.15z" transform="matrix(1, 0, 0, 1, 0, 0)" fill="#2fcc76" stroke="#2fcc76" stroke-width="1" data-uid="o-e2ffb9d4f42543828c9b747493f9d26d"></path><path d="m224.43 399.95c-.37 0-.75-.08-1.1-.26l-27.25-13.44c-.32-.16-.61-.39-.83-.67l-38.39-47.27c-.74-.91-.75-2.22-.01-3.14.73-.92 2.01-1.2 3.06-.68l27.26 13.45c.32.16.61.39.83.67l38.38 47.26c.74.91.75 2.22.01 3.14-.49.61-1.21.94-1.96.94zm-25.65-17.94 16.5 8.14-30.82-37.96-16.51-8.15z" transform="matrix(1, 0, 0, 1, 0, 0)" fill="#2fcc76" stroke="#2fcc76" stroke-width="1" data-uid="o-a0432e98543340dcbaff4ad6c9943dd6"></path><path d="m147.81 305.59c-.37 0-.75-.08-1.1-.26l-27.26-13.45c-.32-.16-.61-.39-.83-.67l-38.2-47.04c-.74-.91-.75-2.22-.01-3.14.73-.92 2.01-1.2 3.06-.68l27.26 13.46c.32.16.61.39.83.67l38.2 47.03c.74.91.75 2.22.01 3.14-.49.61-1.21.94-1.96.94zm-25.66-17.95 16.51 8.14-30.64-37.73-16.51-8.15z" transform="matrix(1, 0, 0, 1, 0, 0)" fill="#2fcc76" stroke="#2fcc76" stroke-width="1" data-uid="o-554bd4a4d6a147429154f19ab1603629"></path><path d="m391.45 271.13c-.37 0-.75-.08-1.1-.26l-27.26-13.45c-.16-.08-.3-.17-.44-.28-4.36-3.43-8.93-6.65-13.59-9.54-1.09-.68-1.49-2.07-.92-3.23s1.92-1.69 3.12-1.24c5.38 2.01 10.74 4.36 15.93 7 9.09 4.62 17.78 10.18 25.82 16.52 1 .79 1.25 2.21.57 3.3-.47.75-1.28 1.17-2.12 1.17z" transform="matrix(1, 0, 0, 1, 0, 0)" fill="#2fcc76" stroke="#2fcc76" stroke-width="1" data-uid="o-f5f12348d4f745c2b2de25b8127f205b"></path><path d="m251.25 490.27c-.37 0-.75-.08-1.1-.26l-26.98-13.32c-11.35-5.73-18.38-18.01-18.38-32.06 0-21.94 16.71-42.15 37.25-45.06 7.43-1.05 14.63.24 20.83 3.74l.06.03 24.97 12.27c1.23.6 1.74 2.08 1.15 3.32s-2.06 1.77-3.3 1.2c-4.19-1.92-8.76-2.72-13.58-2.38-.83.06-1.52.13-2.17.23-18.18 2.57-32.96 20.55-32.96 40.1 0 6.72 1.76 12.97 5.1 18.08 2.61 4.01 6.17 7.25 10.28 9.39 1.22.63 1.7 2.12 1.08 3.35-.44.87-1.32 1.37-2.23 1.37zm-4.24-86.05c-1.41 0-2.84.1-4.28.3-18.17 2.57-32.95 20.57-32.95 40.11 0 12.34 5.83 22.65 15.61 27.58l.77.38 11.34 5.6c-3.58-5.79-5.46-12.72-5.46-20.11 0-21.94 16.71-42.15 37.25-45.05.51-.07 1.04-.14 1.62-.19l-10.35-5.09s-.07-.04-.11-.06c-4.05-2.3-8.63-3.47-13.44-3.47z" transform="matrix(1, 0, 0, 1, 0, 0)" fill="#2fcc76" stroke="#2fcc76" stroke-width="1" data-uid="o-581e72d42fe4450e8a3d324e47e45a58"></path><path d="m186.06 352.69c-.37 0-.75-.08-1.11-.26l-27.26-13.45c-.7-.35-1.2-1-1.35-1.77s.07-1.56.59-2.14c13.38-14.98 28.86-26.83 46-35.2 12.55-6.14 25.7-10.22 39.08-12.12 13.41-1.89 26.59-1.53 39.19 1.08 6.74 1.38 13.34 3.42 19.6 6.05 3.75 1.56 7.42 3.36 10.9 5.34l18.45 9.03c1.23.6 1.74 2.07 1.16 3.31s-2.04 1.78-3.29 1.22c-3.25-1.46-6.67-2.76-10.14-3.87-3.43-1.09-6.95-2.01-10.45-2.74-12.05-2.49-24.65-2.84-37.47-1.02-12.85 1.81-25.49 5.74-37.58 11.67-16.58 8.09-31.54 19.54-44.47 34.03-.49.54-1.17.84-1.87.84zm-23.17-16.73 22.58 11.15c13.07-14.31 28.11-25.67 44.73-33.78 12.56-6.16 25.71-10.24 39.08-12.12 11.42-1.62 22.7-1.6 33.6.07-1.32-.62-2.65-1.21-3.99-1.77-5.97-2.51-12.25-4.45-18.67-5.77-12.04-2.5-24.65-2.84-37.48-1.03-12.86 1.83-25.51 5.75-37.59 11.67-15.62 7.63-29.82 18.25-42.25 31.6z" transform="matrix(1, 0, 0, 1, 0, 0)" fill="#2fcc76" stroke="#2fcc76" stroke-width="1" data-uid="o-cf98f8ded78840798f4c916251bfa730"></path><path d="m109.62 258.56c-.38 0-.75-.08-1.11-.26l-27.26-13.46c-.71-.35-1.22-1.02-1.36-1.81-.14-.78.1-1.59.65-2.16 24.9-26.07 53.19-46.93 84.06-62.02 24.91-12.18 50.96-20.25 77.42-23.99 26.49-3.74 52.57-3.04 77.51 2.1 15.65 3.22 30.9 8.22 45.31 14.86.03.01.06.03.09.05 3 1.39 6.17 2.94 9.34 4.6l19.04 9.38c1.23.61 1.74 2.09 1.15 3.33-.6 1.24-2.08 1.76-3.32 1.17-3.23-1.52-6.59-2.99-10-4.36-11.37-4.6-23.27-8.19-35.36-10.67-24.37-5.03-49.88-5.72-75.82-2.05-25.95 3.68-51.49 11.59-75.91 23.53-30.37 14.84-58.17 35.36-82.64 61-.48.51-1.14.77-1.81.77zm-23.08-16.68 22.55 11.13c24.57-25.44 52.41-45.86 82.79-60.71 24.89-12.17 50.93-20.24 77.41-23.99 26.51-3.75 52.59-3.04 77.53 2.11 1.27.26 2.55.54 3.82.82-10.37-3.98-21.12-7.13-32.08-9.38-24.38-5.02-49.89-5.71-75.81-2.04-25.94 3.67-51.48 11.58-75.92 23.53-29.37 14.35-56.36 34.04-80.27 58.53z" transform="matrix(1, 0, 0, 1, 0, 0)" fill="#2fcc76" stroke="#2fcc76" stroke-width="1" data-uid="o-349729ed18bd4ba58b6d6fa430cf8b21"></path></g></svg>